<svg xmlns="http://www.w3.org/2000/svg" style="display:none">
  <symbol id="icon-heart" viewBox="0 0 24 24" fill="currentColor">
    <path d="M12 21.35l-1.45-1.32C5.4 15.36 2 12.28 2 8.5 2 5.42 4.42 3 7.5 3c1.74 0 3.41.81 4.5 2.09C13.09 3.81 14.76 3 16.5 3 19.58 3 22 5.42 22 8.5c0 3.78-3.4 6.86-8.55 11.54L12 21.35z"/>
  </symbol>
  <symbol id="icon-heart-outline" viewBox="0 0 24 24" fill="none" stroke="currentColor" stroke-width="2">
    <path d="M12 21.35l-1.45-1.32C5.4 15.36 2 12.28 2 8.5 2 5.42 4.42 3 7.5 3c1.74 0 3.41.81 4.5 2.09C13.09 3.81 14.76 3 16.5 3 19.58 3 22 5.42 22 8.5c0 3.78-3.4 6.86-8.55 11.54L12 21.35z"/>
  </symbol>
  <symbol id="icon-basketball" viewBox="0 0 24 24" fill="none" stroke="currentColor" stroke-width="2">
    <circle cx="12" cy="12" r="10"/>
    <path d="M12 2v20M2 12h20M4.93 4.93l14.14 14.14M19.07 4.93L4.93 19.07"/>
  </symbol>
  <symbol id="icon-music" viewBox="0 0 24 24" fill="none" stroke="currentColor" stroke-width="2">
    <path d="M9 18V5l12-2v13"/>
    <circle cx="6" cy="18" r="3"/>
    <circle cx="18" cy="16" r="3"/>
  </symbol>
  <symbol id="icon-pause" viewBox="0 0 24 24" fill="currentColor">
    <rect x="6" y="4" width="4" height="16"/><rect x="14" y="4" width="4" height="16"/>
  </symbol>
  <symbol id="icon-play" viewBox="0 0 24 24" fill="currentColor">
    <path d="M8 5v14l11-7z"/>
  </symbol>
  <symbol id="icon-volume" viewBox="0 0 24 24" fill="none" stroke="currentColor" stroke-width="2">
    <polygon points="11 5 6 9 2 9 2 15 6 15 11 19 11 5"/>
    <path d="M19.07 4.93a10 10 0 010 14.14M15.54 8.46a5 5 0 010 7.07"/>
  </symbol>
  <symbol id="icon-volume-x" viewBox="0 0 24 24" fill="none" stroke="currentColor" stroke-width="2">
    <polygon points="11 5 6 9 2 9 2 15 6 15 11 19 11 5"/>
    <line x1="23" y1="9" x2="17" y2="15"/><line x1="17" y1="9" x2="23" y2="15"/>
  </symbol>
  <symbol id="icon-arrow-down" viewBox="0 0 24 24" fill="none" stroke="currentColor" stroke-width="2">
    <line x1="12" y1="5" x2="12" y2="19"/><polyline points="19 12 12 19 5 12"/>
  </symbol>
  <symbol id="icon-arrow-left" viewBox="0 0 24 24" fill="none" stroke="currentColor" stroke-width="2">
    <line x1="19" y1="12" x2="5" y2="12"/><polyline points="12 19 5 12 12 5"/>
  </symbol>
  <symbol id="icon-camera" viewBox="0 0 24 24" fill="none" stroke="currentColor" stroke-width="2">
    <path d="M23 19a2 2 0 01-2 2H3a2 2 0 01-2-2V8a2 2 0 012-2h4l2-3h6l2 3h4a2 2 0 012 2z"/>
    <circle cx="12" cy="13" r="4"/>
  </symbol>
  <symbol id="icon-chevron-down" viewBox="0 0 24 24" fill="none" stroke="currentColor" stroke-width="2">
    <polyline points="6 9 12 15 18 9"/>
  </symbol>
  <symbol id="icon-x" viewBox="0 0 24 24" fill="none" stroke="currentColor" stroke-width="2">
    <line x1="18" y1="6" x2="6" y2="18"/><line x1="6" y1="6" x2="18" y2="18"/>
  </symbol>
  <symbol id="icon-maximize" viewBox="0 0 24 24" fill="none" stroke="currentColor" stroke-width="2">
    <polyline points="15 3 21 3 21 9"/><polyline points="9 21 3 21 3 15"/>
    <line x1="21" y1="3" x2="14" y2="10"/><line x1="3" y1="21" x2="10" y2="14"/>
  </symbol>
  <symbol id="icon-minimize" viewBox="0 0 24 24" fill="none" stroke="currentColor" stroke-width="2">
    <polyline points="4 14 10 14 10 20"/><polyline points="20 10 14 10 14 4"/>
    <line x1="14" y1="10" x2="21" y2="3"/><line x1="10" y1="14" x2="3" y2="21"/>
  </symbol>
  <symbol id="icon-quote" viewBox="0 0 24 24" fill="currentColor">
    <path d="M9.983 3v7.391c0 5.704-3.731 9.57-8.983 10.609l-.995-2.151c2.432-.917 3.995-3.638 3.995-5.849h-4v-10h9.983zm14.017 0v7.391c0 5.704-3.748 9.571-9 10.609l-.996-2.151c2.433-.917 3.996-3.638 3.996-5.849h-3.983v-10h9.983z"/>
  </symbol>
</svg>
